<svg width="23" height="25" viewBox="0 0 23 25" fill="none" xmlns="http://www.w3.org/2000/svg">
<path d="M21.0852 13.1047C20.4031 9.5153 20.0621 7.72062 18.7672 6.66035C17.4724 5.6001 15.6217 5.6001 11.9203 5.6001H11.0797C7.37835 5.6001 5.52768 5.6001 4.23284 6.66035C2.938 7.72062 2.59694 9.5153 1.91482 13.1047C0.95565 18.1519 0.476062 20.6756 1.87431 22.3378C3.27256 24.0001 5.87495 24.0001 11.0797 24.0001H11.9203C17.1251 24.0001 19.7274 24.0001 21.1258 22.3378C21.9369 21.3734 22.116 20.1191 21.9362 18.2501" stroke="white" stroke-width="2" stroke-linecap="round"/>
<path d="M8.00342 5.6V4.45C8.00342 2.54462 9.5689 1 11.5001 1C13.4314 1 14.9969 2.54462 14.9969 4.45V5.6" stroke="white" stroke-width="2" stroke-linecap="round"/>
</svg>
