<svg width="21" height="23" viewBox="0 0 21 23" fill="none" xmlns="http://www.w3.org/2000/svg">
<path d="M9.7195 15.2844C9.56011 15.4512 9.47192 15.6747 9.47391 15.9066C9.4759 16.1386 9.56793 16.3604 9.73016 16.5245C9.89239 16.6885 10.1119 16.7815 10.3413 16.7835C10.5707 16.7855 10.7917 16.6964 10.9567 16.5352L15.624 11.799C15.6647 11.7579 15.6971 11.7091 15.7191 11.6554C15.7412 11.6016 15.7525 11.544 15.7525 11.4858C15.7525 11.4277 15.7412 11.3701 15.7191 11.3163C15.6971 11.2626 15.6647 11.2138 15.624 11.1727L10.9567 6.43823C10.7917 6.27709 10.5707 6.18793 10.3413 6.18994C10.1119 6.19196 9.89239 6.28499 9.73016 6.44901C9.56793 6.61302 9.4759 6.83489 9.47391 7.06684C9.47192 7.29878 9.56011 7.52224 9.7195 7.68908L12.6 10.6154H0.875C0.642936 10.6154 0.420376 10.7086 0.256282 10.8745C0.0921872 11.0404 0 11.2654 0 11.5C0 11.7346 0.0921872 11.9596 0.256282 12.1255C0.420376 12.2914 0.642936 12.3846 0.875 12.3846H12.6L9.7195 15.2844ZM19.25 0H7.875C7.64294 0 7.42038 0.0932002 7.25628 0.259098C7.09219 0.424995 7 0.650001 7 0.884615C7 1.11923 7.09219 1.34424 7.25628 1.51013C7.42038 1.67603 7.64294 1.76923 7.875 1.76923H18.375C18.6071 1.76923 18.8296 1.86243 18.9937 2.02833C19.1578 2.19423 19.25 2.41923 19.25 2.65385V20.3462C19.25 20.5808 19.1578 20.8058 18.9937 20.9717C18.8296 21.1376 18.6071 21.2308 18.375 21.2308H7.4375C7.20544 21.2308 6.98288 21.324 6.81878 21.4899C6.65469 21.6558 6.5625 21.8808 6.5625 22.1154C6.5625 22.35 6.65469 22.575 6.81878 22.7409C6.98288 22.9068 7.20544 23 7.4375 23H19.25C19.7141 23 20.1592 22.8136 20.4874 22.4818C20.8156 22.15 21 21.7 21 21.2308V1.76923C21 1.3 20.8156 0.849991 20.4874 0.518196C20.1592 0.1864 19.7141 0 19.25 0Z" fill="white"/>
</svg>
