<svg width="101" height="78" viewBox="0 0 101 78" fill="none" xmlns="http://www.w3.org/2000/svg">
<path d="M3.78 59.8659C2.94 59.8659 2.30667 60.0792 1.88 60.5059C1.46667 60.9325 1.16667 61.6592 0.98 62.6859C0.98 62.7125 0.94 62.7259 0.86 62.7259C0.793333 62.7259 0.76 62.7125 0.76 62.6859C0.813333 62.2059 0.873333 61.5792 0.94 60.8059C1.00667 60.0325 1.04 59.4525 1.04 59.0659C1.04 58.9992 1.07333 58.9659 1.14 58.9659C1.22 58.9659 1.26 58.9992 1.26 59.0659C1.26 59.3592 1.62 59.5059 2.34 59.5059C3.47333 59.5459 4.81333 59.5659 6.36 59.5659C7.14667 59.5659 7.98 59.5525 8.86 59.5259L10.22 59.5059C10.7 59.5059 11.0533 59.4725 11.28 59.4059C11.52 59.3392 11.6733 59.2059 11.74 59.0059C11.7533 58.9525 11.7933 58.9259 11.86 58.9259C11.9267 58.9259 11.96 58.9525 11.96 59.0059C11.92 59.3925 11.88 59.9792 11.84 60.7659C11.8 61.5525 11.78 62.1925 11.78 62.6859C11.78 62.7125 11.74 62.7259 11.66 62.7259C11.58 62.7259 11.54 62.7125 11.54 62.6859C11.5 61.6459 11.2867 60.9192 10.9 60.5059C10.5133 60.0792 9.87333 59.8659 8.98 59.8659C8.38 59.8659 7.95333 59.8925 7.7 59.9459C7.44667 59.9992 7.27333 60.1125 7.18 60.2859C7.08667 60.4592 7.04 60.7525 7.04 61.1659V70.3859C7.04 70.7992 7.08667 71.0992 7.18 71.2859C7.27333 71.4725 7.45333 71.5992 7.72 71.6659C7.98667 71.7325 8.40667 71.7659 8.98 71.7659C9.02 71.7659 9.04 71.8059 9.04 71.8859C9.04 71.9659 9.02 72.0059 8.98 72.0059C8.54 72.0059 8.18667 71.9992 7.92 71.9859L6.36 71.9659L4.86 71.9859C4.59333 71.9992 4.22667 72.0059 3.76 72.0059C3.73333 72.0059 3.72 71.9659 3.72 71.8859C3.72 71.8059 3.73333 71.7659 3.76 71.7659C4.33333 71.7659 4.75333 71.7325 5.02 71.6659C5.28667 71.5992 5.46667 71.4725 5.56 71.2859C5.66667 71.0859 5.72 70.7859 5.72 70.3859V61.1259C5.72 60.7125 5.67333 60.4259 5.58 60.2659C5.48667 60.0925 5.31333 59.9859 5.06 59.9459C4.80667 59.8925 4.38 59.8659 3.78 59.8659ZM13.7358 72.0059C13.7091 72.0059 13.6958 71.9659 13.6958 71.8859C13.6958 71.8059 13.7091 71.7659 13.7358 71.7659C14.0958 71.7659 14.3624 71.7325 14.5358 71.6659C14.7224 71.5859 14.8491 71.4525 14.9158 71.2659C14.9824 71.0659 15.0158 70.7725 15.0158 70.3859V66.6459C15.0158 66.1659 14.9624 65.8192 14.8558 65.6059C14.7624 65.3925 14.5958 65.2859 14.3558 65.2859C14.1158 65.2859 13.8158 65.3792 13.4558 65.5659H13.4358C13.3824 65.5659 13.3424 65.5325 13.3158 65.4659C13.2891 65.3992 13.2958 65.3525 13.3358 65.3259L15.9358 64.1259L16.0158 64.1059C16.0424 64.1059 16.0758 64.1259 16.1158 64.1659C16.1558 64.1925 16.1758 64.2259 16.1758 64.2659C16.1758 64.3592 16.1691 64.6259 16.1558 65.0659C16.1424 65.5059 16.1358 66.0259 16.1358 66.6259V70.3859C16.1358 70.7859 16.1691 71.0792 16.2358 71.2659C16.3024 71.4525 16.4224 71.5859 16.5958 71.6659C16.7691 71.7325 17.0358 71.7659 17.3958 71.7659C17.4358 71.7659 17.4558 71.8059 17.4558 71.8859C17.4558 71.9659 17.4358 72.0059 17.3958 72.0059C17.0891 72.0059 16.8424 71.9992 16.6558 71.9859L15.5758 71.9659L14.4958 71.9859C14.3091 71.9992 14.0558 72.0059 13.7358 72.0059ZM15.4158 61.7659C15.1358 61.7659 14.9158 61.6925 14.7558 61.5459C14.6091 61.3992 14.5358 61.1925 14.5358 60.9259C14.5358 60.6592 14.6091 60.4525 14.7558 60.3059C14.9158 60.1592 15.1358 60.0859 15.4158 60.0859C15.6824 60.0859 15.8891 60.1592 16.0358 60.3059C16.1824 60.4525 16.2558 60.6592 16.2558 60.9259C16.2558 61.1925 16.1824 61.3992 16.0358 61.5459C15.8891 61.6925 15.6824 61.7659 15.4158 61.7659ZM32.9845 71.7659C33.0245 71.7659 33.0445 71.8059 33.0445 71.8859C33.0445 71.9659 33.0245 72.0059 32.9845 72.0059C32.6779 72.0059 32.4312 71.9992 32.2445 71.9859L31.1645 71.9659L30.0845 71.9859C29.8979 71.9992 29.6512 72.0059 29.3445 72.0059C29.3045 72.0059 29.2845 71.9659 29.2845 71.8859C29.2845 71.8059 29.3045 71.7659 29.3445 71.7659C29.7045 71.7659 29.9712 71.7325 30.1445 71.6659C30.3179 71.5859 30.4379 71.4525 30.5045 71.2659C30.5712 71.0659 30.6045 70.7725 30.6045 70.3859V67.2059C30.6045 66.4192 30.4645 65.8392 30.1845 65.4659C29.9045 65.0792 29.4712 64.8859 28.8845 64.8859C28.4845 64.8859 28.0779 64.9992 27.6645 65.2259C27.2645 65.4392 26.8912 65.7459 26.5445 66.1459C26.5579 66.2125 26.5645 66.3192 26.5645 66.4659V70.3859C26.5645 70.7859 26.5979 71.0792 26.6645 71.2659C26.7312 71.4525 26.8512 71.5859 27.0245 71.6659C27.1979 71.7325 27.4645 71.7659 27.8245 71.7659C27.8645 71.7659 27.8845 71.8059 27.8845 71.8859C27.8845 71.9659 27.8645 72.0059 27.8245 72.0059C27.5179 72.0059 27.2712 71.9992 27.0845 71.9859L26.0045 71.9659L24.9045 71.9859C24.7312 71.9992 24.4912 72.0059 24.1845 72.0059C24.1445 72.0059 24.1245 71.9659 24.1245 71.8859C24.1245 71.8059 24.1445 71.7659 24.1845 71.7659C24.5445 71.7659 24.8112 71.7325 24.9845 71.6659C25.1579 71.5859 25.2712 71.4525 25.3245 71.2659C25.3912 71.0792 25.4245 70.7859 25.4245 70.3859V67.2059C25.4245 66.4192 25.2845 65.8392 25.0045 65.4659C24.7245 65.0792 24.2979 64.8859 23.7245 64.8859C23.3245 64.8859 22.9245 64.9925 22.5245 65.2059C22.1245 65.4192 21.7579 65.7192 21.4245 66.1059V70.3859C21.4245 70.7859 21.4512 71.0792 21.5045 71.2659C21.5712 71.4525 21.6912 71.5859 21.8645 71.6659C22.0379 71.7325 22.3045 71.7659 22.6645 71.7659C22.7045 71.7659 22.7245 71.8059 22.7245 71.8859C22.7245 71.9659 22.7045 72.0059 22.6645 72.0059C22.3579 72.0059 22.1179 71.9992 21.9445 71.9859L20.8645 71.9659L19.7645 71.9859C19.5912 71.9992 19.3512 72.0059 19.0445 72.0059C19.0045 72.0059 18.9845 71.9659 18.9845 71.8859C18.9845 71.8059 19.0045 71.7659 19.0445 71.7659C19.4045 71.7659 19.6712 71.7325 19.8445 71.6659C20.0179 71.5859 20.1312 71.4525 20.1845 71.2659C20.2512 71.0792 20.2845 70.7859 20.2845 70.3859V66.4259C20.2845 65.9725 20.2312 65.6459 20.1245 65.4459C20.0179 65.2459 19.8379 65.1459 19.5845 65.1459C19.3712 65.1459 19.0112 65.2459 18.5045 65.4459H18.4645C18.4112 65.4459 18.3712 65.4192 18.3445 65.3659C18.3312 65.2992 18.3512 65.2525 18.4045 65.2259L20.7245 64.1259C20.7512 64.1125 20.7912 64.1059 20.8445 64.1059C20.9645 64.1059 21.0912 64.2592 21.2245 64.5659C21.3579 64.8725 21.4245 65.2659 21.4245 65.7459V65.7659C21.9045 65.1792 22.3845 64.7525 22.8645 64.4859C23.3445 64.2192 23.8445 64.0859 24.3645 64.0859C24.9645 64.0859 25.4512 64.2325 25.8245 64.5259C26.1979 64.8192 26.4312 65.2592 26.5245 65.8459C27.0179 65.2459 27.5112 64.8059 28.0045 64.5259C28.4979 64.2325 29.0112 64.0859 29.5445 64.0859C30.2512 64.0859 30.7912 64.2925 31.1645 64.7059C31.5512 65.1059 31.7445 65.7059 31.7445 66.5059V70.3859C31.7445 70.7859 31.7712 71.0792 31.8245 71.2659C31.8912 71.4525 32.0112 71.5859 32.1845 71.6659C32.3579 71.7325 32.6245 71.7659 32.9845 71.7659ZM40.6784 70.8859C40.7184 70.8859 40.7518 70.9125 40.7784 70.9659C40.8184 71.0059 40.8251 71.0459 40.7984 71.0859C39.8918 71.8592 38.9184 72.2459 37.8784 72.2459C37.0918 72.2459 36.4118 72.0659 35.8384 71.7059C35.2651 71.3459 34.8318 70.8792 34.5384 70.3059C34.2584 69.7192 34.1184 69.0859 34.1184 68.4059C34.1184 67.6059 34.3051 66.8792 34.6784 66.2259C35.0651 65.5725 35.5851 65.0592 36.2384 64.6859C36.8918 64.2992 37.6184 64.1059 38.4184 64.1059C39.1384 64.1059 39.6984 64.2859 40.0984 64.6459C40.4984 64.9925 40.6984 65.4725 40.6984 66.0859C40.6984 66.2459 40.6784 66.3659 40.6384 66.4459C40.6118 66.5125 40.5518 66.5459 40.4584 66.5459L35.5384 66.5859C35.4718 66.9459 35.4384 67.2925 35.4384 67.6259C35.4384 68.7859 35.7184 69.7325 36.2784 70.4659C36.8384 71.1859 37.6118 71.5459 38.5984 71.5459C39.3584 71.5459 40.0451 71.3259 40.6584 70.8859H40.6784ZM37.7384 64.5059C37.1918 64.5059 36.7318 64.6659 36.3584 64.9859C35.9984 65.2925 35.7451 65.7325 35.5984 66.3059L39.3184 66.2259C39.3184 65.6792 39.1718 65.2592 38.8784 64.9659C38.5984 64.6592 38.2184 64.5059 37.7384 64.5059ZM59.07 71.7659C59.11 71.7659 59.13 71.8059 59.13 71.8859C59.13 71.9659 59.11 72.0059 59.07 72.0059H56.83C56.7233 72.0059 56.53 72.0059 56.25 72.0059C55.9833 72.0192 55.6033 71.6859 55.11 71.0059C54.6167 70.3125 54.1433 69.6792 53.69 69.1059L50.63 65.2459L49.97 65.8859V70.3859C49.97 70.7859 50.01 71.0859 50.09 71.2859C50.17 71.4725 50.3233 71.5992 50.55 71.6659C50.79 71.7325 51.1633 71.7659 51.67 71.7659C51.71 71.7659 51.73 71.8059 51.73 71.8859C51.73 71.9659 51.71 72.0059 51.67 72.0059C51.27 72.0059 50.95 71.9992 50.71 71.9859L49.31 71.9659L47.95 71.9859C47.71 71.9992 47.3767 72.0059 46.95 72.0059C46.9233 72.0059 46.91 71.9659 46.91 71.8859C46.91 71.8059 46.9233 71.7659 46.95 71.7659C47.4567 71.7659 47.8233 71.7325 48.05 71.6659C48.29 71.5992 48.45 71.4725 48.53 71.2859C48.6233 71.0859 48.67 70.7859 48.67 70.3859V61.1259C48.67 60.7259 48.63 60.4325 48.55 60.2459C48.47 60.0592 48.31 59.9325 48.07 59.8659C47.8433 59.7859 47.4767 59.7459 46.97 59.7459C46.9433 59.7459 46.93 59.7059 46.93 59.6259C46.93 59.5459 46.9433 59.5059 46.97 59.5059L47.97 59.5259C48.53 59.5525 48.9767 59.5659 49.31 59.5659C49.6967 59.5659 50.17 59.5525 50.73 59.5259L51.67 59.5059C51.71 59.5059 51.73 59.5459 51.73 59.6259C51.73 59.7059 51.71 59.7459 51.67 59.7459C51.1767 59.7459 50.81 59.7859 50.57 59.8659C50.3433 59.9459 50.1833 60.0859 50.09 60.2859C50.01 60.4725 49.97 60.7659 49.97 61.1659V65.3859L54.25 61.1259C54.69 60.6859 54.91 60.3592 54.91 60.1459C54.91 59.8792 54.5167 59.7459 53.73 59.7459C53.7033 59.7459 53.69 59.7059 53.69 59.6259C53.69 59.5459 53.7033 59.5059 53.73 59.5059L54.59 59.5259C55.1233 59.5525 55.61 59.5659 56.05 59.5659C56.49 59.5659 56.95 59.5525 57.43 59.5259L58.17 59.5059C58.21 59.5059 58.23 59.5459 58.23 59.6259C58.23 59.7059 58.21 59.7459 58.17 59.7459C57.6233 59.7459 57.0433 59.8659 56.43 60.1059C55.8167 60.3459 55.2433 60.7259 54.71 61.2459L51.55 64.3459L54.43 68.0259C55.4033 69.2925 56.1433 70.1859 56.65 70.7059C57.17 71.2259 57.57 71.5325 57.85 71.6259C58.13 71.7192 58.5367 71.7659 59.07 71.7659ZM65.9909 70.8859C66.0309 70.8859 66.0643 70.9125 66.0909 70.9659C66.1309 71.0059 66.1376 71.0459 66.1109 71.0859C65.2043 71.8592 64.2309 72.2459 63.1909 72.2459C62.4043 72.2459 61.7243 72.0659 61.1509 71.7059C60.5776 71.3459 60.1443 70.8792 59.8509 70.3059C59.5709 69.7192 59.4309 69.0859 59.4309 68.4059C59.4309 67.6059 59.6176 66.8792 59.9909 66.2259C60.3776 65.5725 60.8976 65.0592 61.5509 64.6859C62.2043 64.2992 62.9309 64.1059 63.7309 64.1059C64.4509 64.1059 65.0109 64.2859 65.4109 64.6459C65.8109 64.9925 66.0109 65.4725 66.0109 66.0859C66.0109 66.2459 65.9909 66.3659 65.9509 66.4459C65.9243 66.5125 65.8643 66.5459 65.7709 66.5459L60.8509 66.5859C60.7843 66.9459 60.7509 67.2925 60.7509 67.6259C60.7509 68.7859 61.0309 69.7325 61.5909 70.4659C62.1509 71.1859 62.9243 71.5459 63.9109 71.5459C64.6709 71.5459 65.3576 71.3259 65.9709 70.8859H65.9909ZM63.0509 64.5059C62.5043 64.5059 62.0443 64.6659 61.6709 64.9859C61.3109 65.2925 61.0576 65.7325 60.9109 66.3059L64.6309 66.2259C64.6309 65.6792 64.4843 65.2592 64.1909 64.9659C63.9109 64.6592 63.5309 64.5059 63.0509 64.5059ZM74.0378 70.8859C74.0778 70.8859 74.1111 70.9125 74.1378 70.9659C74.1778 71.0059 74.1845 71.0459 74.1578 71.0859C73.2511 71.8592 72.2778 72.2459 71.2378 72.2459C70.4511 72.2459 69.7711 72.0659 69.1978 71.7059C68.6245 71.3459 68.1911 70.8792 67.8978 70.3059C67.6178 69.7192 67.4778 69.0859 67.4778 68.4059C67.4778 67.6059 67.6645 66.8792 68.0378 66.2259C68.4245 65.5725 68.9445 65.0592 69.5978 64.6859C70.2511 64.2992 70.9778 64.1059 71.7778 64.1059C72.4978 64.1059 73.0578 64.2859 73.4578 64.6459C73.8578 64.9925 74.0578 65.4725 74.0578 66.0859C74.0578 66.2459 74.0378 66.3659 73.9978 66.4459C73.9711 66.5125 73.9111 66.5459 73.8178 66.5459L68.8978 66.5859C68.8311 66.9459 68.7978 67.2925 68.7978 67.6259C68.7978 68.7859 69.0778 69.7325 69.6378 70.4659C70.1978 71.1859 70.9711 71.5459 71.9578 71.5459C72.7178 71.5459 73.4045 71.3259 74.0178 70.8859H74.0378ZM71.0978 64.5059C70.5511 64.5059 70.0911 64.6659 69.7178 64.9859C69.3578 65.2925 69.1045 65.7325 68.9578 66.3059L72.6778 66.2259C72.6778 65.6792 72.5311 65.2592 72.2378 64.9659C71.9578 64.6592 71.5778 64.5059 71.0978 64.5059ZM81.3019 64.0259C81.8485 64.0259 82.3552 64.1725 82.8219 64.4659C83.2885 64.7592 83.6619 65.1859 83.9419 65.7459C84.2219 66.3059 84.3619 66.9592 84.3619 67.7059C84.3619 68.7059 84.1352 69.5525 83.6819 70.2459C83.2285 70.9259 82.6685 71.4325 82.0019 71.7659C81.3485 72.0992 80.7019 72.2659 80.0619 72.2659C79.6485 72.2659 79.2752 72.2259 78.9419 72.1459C78.6219 72.0659 78.2885 71.9325 77.9419 71.7459V75.8859C77.9419 76.2859 77.9885 76.5792 78.0819 76.7659C78.1885 76.9525 78.3819 77.0792 78.6619 77.1459C78.9419 77.2259 79.3685 77.2659 79.9419 77.2659C79.9685 77.2659 79.9819 77.3059 79.9819 77.3859C79.9819 77.4659 79.9685 77.5059 79.9419 77.5059C79.4885 77.5059 79.1285 77.4992 78.8619 77.4859L77.4019 77.4659L76.3019 77.4859C76.1152 77.4992 75.8685 77.5059 75.5619 77.5059C75.5219 77.5059 75.5019 77.4659 75.5019 77.3859C75.5019 77.3059 75.5219 77.2659 75.5619 77.2659C75.9219 77.2659 76.1885 77.2259 76.3619 77.1459C76.5352 77.0792 76.6552 76.9525 76.7219 76.7659C76.7885 76.5792 76.8219 76.2859 76.8219 75.8859V66.4859C76.8219 66.0059 76.7685 65.6659 76.6619 65.4659C76.5552 65.2525 76.3685 65.1459 76.1019 65.1459C75.8085 65.1459 75.4552 65.2392 75.0419 65.4259L75.0019 65.4459C74.9485 65.4459 74.9152 65.4125 74.9019 65.3459C74.8752 65.2792 74.8819 65.2325 74.9219 65.2059L77.1419 64.1459C77.1685 64.1325 77.2152 64.1259 77.2819 64.1259C77.4685 64.1259 77.6219 64.2659 77.7419 64.5459C77.8619 64.8259 77.9285 65.2259 77.9419 65.7459C79.0752 64.5992 80.1952 64.0259 81.3019 64.0259ZM80.6619 71.8459C81.3685 71.8459 81.9485 71.5392 82.4019 70.9259C82.8552 70.2992 83.0819 69.4325 83.0819 68.3259C83.0819 67.2059 82.8352 66.3392 82.3419 65.7259C81.8485 65.0992 81.2219 64.7859 80.4619 64.7859C79.9952 64.7859 79.5619 64.8992 79.1619 65.1259C78.7619 65.3525 78.3552 65.6725 77.9419 66.0859V70.5859C78.3019 70.9992 78.6952 71.3125 79.1219 71.5259C79.5485 71.7392 80.0619 71.8459 80.6619 71.8459ZM92.4167 70.8859C92.4567 70.8859 92.4901 70.9125 92.5167 70.9659C92.5567 71.0059 92.5634 71.0459 92.5367 71.0859C91.6301 71.8592 90.6567 72.2459 89.6167 72.2459C88.8301 72.2459 88.1501 72.0659 87.5767 71.7059C87.0034 71.3459 86.5701 70.8792 86.2767 70.3059C85.9967 69.7192 85.8567 69.0859 85.8567 68.4059C85.8567 67.6059 86.0434 66.8792 86.4167 66.2259C86.8034 65.5725 87.3234 65.0592 87.9767 64.6859C88.6301 64.2992 89.3567 64.1059 90.1567 64.1059C90.8767 64.1059 91.4367 64.2859 91.8367 64.6459C92.2367 64.9925 92.4367 65.4725 92.4367 66.0859C92.4367 66.2459 92.4167 66.3659 92.3767 66.4459C92.3501 66.5125 92.2901 66.5459 92.1967 66.5459L87.2767 66.5859C87.2101 66.9459 87.1767 67.2925 87.1767 67.6259C87.1767 68.7859 87.4567 69.7325 88.0167 70.4659C88.5767 71.1859 89.3501 71.5459 90.3367 71.5459C91.0967 71.5459 91.7834 71.3259 92.3967 70.8859H92.4167ZM89.4767 64.5059C88.9301 64.5059 88.4701 64.6659 88.0967 64.9859C87.7367 65.2925 87.4834 65.7325 87.3367 66.3059L91.0567 66.2259C91.0567 65.6792 90.9101 65.2592 90.6167 64.9659C90.3367 64.6592 89.9567 64.5059 89.4767 64.5059ZM98.8008 64.1059C99.0941 64.1059 99.3741 64.1859 99.6408 64.3459C99.9074 64.5059 100.041 64.6992 100.041 64.9259C100.041 65.0992 99.9808 65.2459 99.8608 65.3659C99.7541 65.4859 99.5941 65.5459 99.3808 65.5459C99.2608 65.5459 99.1541 65.5259 99.0608 65.4859C98.9808 65.4325 98.8808 65.3592 98.7608 65.2659C98.6408 65.1592 98.5274 65.0792 98.4208 65.0259C98.3141 64.9725 98.1874 64.9459 98.0408 64.9459C97.8674 64.9459 97.6808 65.0192 97.4808 65.1659C97.2941 65.2992 96.9941 65.6059 96.5808 66.0859V70.3859C96.5808 70.7859 96.6274 71.0792 96.7208 71.2659C96.8274 71.4525 97.0141 71.5859 97.2808 71.6659C97.5474 71.7325 97.9608 71.7659 98.5208 71.7659C98.5741 71.7659 98.6008 71.8059 98.6008 71.8859C98.6008 71.9659 98.5741 72.0059 98.5208 72.0059C98.0941 72.0059 97.7541 71.9992 97.5008 71.9859L96.0208 71.9659L94.9208 71.9859C94.7474 71.9992 94.5074 72.0059 94.2008 72.0059C94.1608 72.0059 94.1408 71.9659 94.1408 71.8859C94.1408 71.8059 94.1608 71.7659 94.2008 71.7659C94.5608 71.7659 94.8274 71.7325 95.0008 71.6659C95.1741 71.5859 95.2874 71.4525 95.3408 71.2659C95.4074 71.0792 95.4408 70.7859 95.4408 70.3859V66.4259C95.4408 65.9725 95.3874 65.6459 95.2808 65.4459C95.1741 65.2459 94.9941 65.1459 94.7408 65.1459C94.5274 65.1459 94.1674 65.2459 93.6608 65.4459H93.6208C93.5674 65.4459 93.5274 65.4192 93.5008 65.3659C93.4874 65.2992 93.5074 65.2525 93.5608 65.2259L95.8808 64.1259C95.9074 64.1125 95.9474 64.1059 96.0008 64.1059C96.1208 64.1059 96.2474 64.2592 96.3808 64.5659C96.5141 64.8725 96.5808 65.2659 96.5808 65.7459V65.7659C97.1274 65.1259 97.5608 64.6925 97.8808 64.4659C98.2008 64.2259 98.5074 64.1059 98.8008 64.1059Z" fill="white"/>
<path d="M60.8544 5.69476C60.8055 5.80077 60.7828 5.91428 60.7835 6.02577C60.785 6.28267 60.9106 6.53009 61.1283 6.65653C61.1954 6.6952 61.2627 6.7349 61.3293 6.77439C61.6399 6.95857 62.0247 6.82578 62.1884 6.47721C62.3526 6.12864 62.2335 5.69687 61.9229 5.5127C61.8524 5.47116 61.7818 5.42962 61.7109 5.3885C61.3987 5.20743 61.0152 5.34455 60.8544 5.69476Z" fill="white"/>
<path d="M31.3404 25.1014C31.527 35.7873 40.2963 44.327 50.8893 44.1383C61.4822 43.9496 69.9481 35.1029 69.7616 24.4171C69.5751 13.7315 60.8057 5.19158 50.2128 5.38025C39.6198 5.56893 31.1539 14.4158 31.3404 25.1014ZM68.5733 24.4383C68.7483 34.4631 60.8058 42.7626 50.8684 42.9396C40.9309 43.1166 32.7037 35.1051 32.5287 25.0803C32.3537 15.0557 40.2962 6.75613 50.2337 6.57913C60.1712 6.40213 68.3983 14.4136 68.5733 24.4383Z" fill="white"/>
<path d="M87.5271 29.0588L87.5284 29.2819C87.5306 29.6483 87.8631 29.9431 88.2714 29.9405C88.6794 29.9379 89.0086 29.6388 89.0063 29.2724L89.005 29.0493C89.0028 28.6827 88.67 28.3879 88.262 28.3905C87.8538 28.3931 87.5248 28.6922 87.5271 29.0588Z" fill="white"/>
<path d="M54.5384 49.5713L54.5087 47.8669C61.0051 46.8892 66.7998 43.2545 70.5203 37.8168L77.8339 37.6837C78.1687 37.6776 78.4353 37.4033 78.4295 37.0709L78.4003 35.4L87.864 35.2278C88.8996 35.2089 89.7276 34.3566 89.7097 33.3282L89.6818 31.7337C89.676 31.4012 89.4 31.1369 89.0655 31.1429C88.7307 31.149 88.4643 31.4233 88.4701 31.7558L88.4979 33.3502C88.5043 33.7152 88.2106 34.0175 87.843 34.0242L72.5062 34.3033C73.9395 31.1614 74.6618 27.7003 74.6013 24.2321C74.5417 20.8172 73.7223 17.4307 72.2232 14.3769L87.4952 14.0989C87.8628 14.0922 88.1669 14.3839 88.1732 14.7488L88.3265 23.5297C88.3323 23.862 88.6082 24.1264 88.9429 24.1203C89.2774 24.1142 89.544 23.8399 89.5382 23.5076L89.385 14.7267C89.367 13.6983 88.5098 12.8767 87.4742 12.8955L78.0105 13.0677L77.9813 11.3948C77.9755 11.0623 77.6995 10.7979 77.3647 10.804L70.1428 10.9354C68.9447 9.28861 67.539 7.79929 65.9555 6.50828C65.6969 6.2975 65.3149 6.33481 65.1027 6.59203C65.0077 6.707 64.9625 6.84654 64.9649 6.98451C64.9679 7.15476 65.0432 7.32247 65.1863 7.43886C66.769 8.72936 68.1673 10.2263 69.3422 11.8886C69.8339 12.5825 70.2937 13.3206 70.7062 14.0792C72.3996 17.1843 73.3279 20.7034 73.3899 24.2543C73.4528 27.8584 72.6248 31.4538 70.9952 34.6518C70.6142 35.4072 70.1745 36.1616 69.6902 36.89C66.0724 42.3332 60.2871 45.9269 53.8174 46.749C53.0166 46.8531 52.1892 46.9137 51.3612 46.9288C50.5331 46.9439 49.7059 46.9135 48.902 46.8388C42.4077 46.2526 36.4989 42.8716 32.6934 37.5633C32.1842 36.853 31.7197 36.1171 31.3124 35.3761C29.5723 32.2394 28.618 28.6744 28.5551 25.0703C28.4931 21.5195 29.2977 17.9696 30.8817 14.8049C31.2675 14.0315 31.7009 13.2777 32.168 12.5663C36.2502 6.33366 43.1348 2.53139 50.5837 2.39582C52.7669 2.35609 54.9308 2.62922 57.0149 3.20793C57.3372 3.29733 57.6718 3.1103 57.7621 2.79039C57.8526 2.4703 57.6645 2.13819 57.3423 2.04861C55.1447 1.43828 52.8637 1.15036 50.5627 1.19224C42.8189 1.33317 35.6571 5.23384 31.3343 11.6415L24.113 11.773C23.7783 11.779 23.5117 12.0533 23.5175 12.3858L23.5467 14.0588L14.083 14.231C13.0474 14.2498 12.2194 15.1021 12.2373 16.1306L12.562 34.7322C12.58 35.7607 13.4372 36.5823 14.4728 36.5634L23.9365 36.3912L23.9657 38.0621C23.9715 38.3945 24.2475 38.6589 24.5822 38.6528L31.8959 38.5197C35.8038 43.8185 41.7214 47.2401 48.248 47.9809L48.2778 49.6853C48.2939 50.6087 49.0636 51.3466 49.9934 51.3297L52.8814 51.2771C53.8111 51.2602 54.5546 50.4948 54.5384 49.5713ZM71.59 13.1842C71.3875 12.8255 71.1784 12.4704 70.9579 12.124L76.78 12.0181L76.7987 13.0894L71.59 13.1842ZM71.3027 36.5986C71.5161 36.2414 71.7148 35.8802 71.9052 35.518L77.1886 35.4219L77.2072 36.4911L71.3027 36.5986ZM24.7584 14.0365L24.7397 12.9652L30.5619 12.8592C30.3536 13.2134 30.157 13.5757 29.9672 13.9417L24.7584 14.0365ZM14.4518 35.3596C14.0842 35.3663 13.7801 35.0749 13.7738 34.71L13.4491 16.1085C13.4427 15.7436 13.7364 15.4411 14.104 15.4344L29.376 15.1565C27.9846 18.2629 27.2837 21.6771 27.3433 25.092C27.4039 28.5602 28.2466 31.9928 29.7886 35.0805L14.4518 35.3596ZM25.1669 37.4382L25.1482 36.3689L30.4316 36.2728C30.6346 36.6278 30.8457 36.9814 31.0714 37.3308L25.1669 37.4382ZM49.9723 50.1259C49.7106 50.1307 49.4941 49.9233 49.4895 49.6632L49.462 48.0895C50.0957 48.1293 50.7387 48.1436 51.382 48.1318C52.0253 48.1201 52.6674 48.0825 53.2992 48.0197L53.3267 49.5934C53.3312 49.8535 53.1221 50.0686 52.8604 50.0733L49.9723 50.1259Z" fill="white"/>
<path d="M63.8616 26.2244C63.8642 26.6525 64.1215 26.9977 64.4363 26.9957L67.73 26.9746C68.045 26.9725 68.2981 26.6241 68.2955 26.1959C68.2929 25.768 68.0356 25.4225 67.7206 25.4246L64.4269 25.4457C64.1121 25.4477 63.8591 25.7964 63.8616 26.2244Z" fill="white"/>
<path d="M37.2496 24.8517C37.247 24.4237 36.9897 24.0783 36.6749 24.0803L33.3812 24.1015C33.0662 24.1035 32.8132 24.4522 32.8157 24.8801C32.8183 25.3083 33.0756 25.6535 33.3906 25.6515L36.6843 25.6303C36.9991 25.6283 37.2522 25.2798 37.2496 24.8517Z" fill="white"/>
<path d="M61.0344 31.9669C60.9714 32.0682 60.9418 32.1796 60.9425 32.2896C60.9437 32.4981 61.054 32.7012 61.252 32.8166L64.4176 34.6597C64.7202 34.8358 65.1135 34.7412 65.2957 34.4484C65.4779 34.1557 65.3809 33.775 65.0781 33.5988L61.9125 31.7557C61.6099 31.5793 61.2166 31.674 61.0344 31.9669Z" fill="white"/>
<path d="M40.0767 19.1088C40.2591 18.8159 40.1615 18.4357 39.8591 18.2593L36.6935 16.4162C36.3909 16.24 35.9976 16.3347 35.8154 16.6275C35.7524 16.7287 35.7228 16.8402 35.7235 16.9501C35.7248 17.1586 35.835 17.3618 36.033 17.4771L39.1986 19.3203C39.5012 19.4965 39.8946 19.4018 40.0767 19.1088Z" fill="white"/>
<path d="M44.2498 14.6464C44.5518 14.4725 44.6631 14.0739 44.4976 13.7557L42.7689 10.4284C42.6035 10.1103 42.2247 9.99341 41.9225 10.1673C41.7143 10.2872 41.5967 10.5143 41.5981 10.7479C41.5988 10.8529 41.6235 10.9595 41.6747 11.0581L43.4032 14.3854C43.5687 14.7033 43.9477 14.8202 44.2498 14.6464Z" fill="white"/>
<path d="M49.7411 13.1393C50.1494 13.1366 50.4785 12.8667 50.4765 12.5364L50.4555 9.08148C50.4535 8.75106 50.1212 8.48552 49.7129 8.48814C49.3047 8.49076 48.9756 8.76054 48.9776 9.09096L48.9985 12.5459C49.0005 12.8763 49.3329 13.1419 49.7411 13.1393Z" fill="white"/>
<path d="M49.8921 37.9491C49.4839 37.9517 49.1548 38.2215 49.1568 38.5519L49.1777 42.007C49.1797 42.3373 49.5121 42.6028 49.9203 42.6002C50.3286 42.5976 50.6577 42.3278 50.6557 41.9975L50.6347 38.5424C50.6327 38.212 50.3004 37.9465 49.8921 37.9491Z" fill="white"/>
<path d="M58.2018 10.3145L56.4767 13.649C56.4224 13.7539 56.3969 13.8679 56.3976 13.9803C56.399 14.2098 56.5093 14.4327 56.7046 14.554C56.9952 14.7351 57.3647 14.6237 57.5297 14.3048L59.2546 10.9702C59.4194 10.6513 59.3173 10.2461 59.0267 10.0652C58.7363 9.88407 58.3667 9.99593 58.2018 10.3145Z" fill="white"/>
<path d="M42.9099 40.7617L44.635 37.4272C44.7997 37.1087 44.6978 36.7032 44.4069 36.5223C44.1163 36.3412 43.7468 36.4528 43.5819 36.7715L41.857 40.106C41.8028 40.2108 41.7773 40.3249 41.778 40.4373C41.7794 40.6668 41.8897 40.8895 42.0848 41.0111C42.3755 41.1923 42.745 41.0804 42.9099 40.7617Z" fill="white"/>
<path d="M61.1734 18.0812C60.971 18.2 60.8584 18.4141 60.8597 18.6334C60.8603 18.7412 60.8883 18.8501 60.9466 18.9495C61.1231 19.252 61.5111 19.3537 61.8126 19.1766L64.9688 17.3243C65.2705 17.1472 65.3722 16.7582 65.1959 16.4558C65.0192 16.1534 64.6313 16.0518 64.3296 16.2287L61.1734 18.0812Z" fill="white"/>
<path d="M38.5656 33.0043C38.7664 32.828 38.8331 32.4389 38.7151 32.1363C38.5968 31.8336 38.3379 31.7309 38.1372 31.9075L36.0367 33.753C35.9019 33.8714 35.8273 34.0853 35.8286 34.3045C35.8293 34.4121 35.8481 34.5213 35.887 34.6208C36.0055 34.9237 36.2642 35.0263 36.465 34.8497L38.5656 33.0043Z" fill="white"/>
<path d="M55.5717 16.5014L51.2803 24.2576C51.202 24.2466 51.123 24.2397 51.0433 24.2403C50.486 24.2438 49.9809 24.5317 49.686 24.9914L37.6263 20.0593C37.476 19.9978 37.305 20.0706 37.244 20.2219C37.2289 20.259 37.2222 20.2971 37.2224 20.3346C37.2231 20.4507 37.2918 20.5604 37.4052 20.6067L49.4601 25.5371C49.4358 25.6528 49.4226 25.7709 49.4233 25.8911C49.4288 26.7957 50.1645 27.527 51.0628 27.5212C51.1308 27.5208 51.1989 27.5159 51.266 27.5069L56.7819 37.676C56.7838 37.6794 56.7843 37.6832 56.786 37.6868L58.412 40.6813C58.5672 40.9677 58.9237 41.0732 59.2081 40.9163C59.4928 40.7599 59.5975 40.4011 59.4419 40.1147L59.012 39.3227C59.0114 39.3218 59.0114 39.3206 59.0107 39.3198L52.2968 26.9403C52.347 26.8807 52.393 26.8183 52.4338 26.7527L53.696 27.2692C53.8463 27.3304 54.0176 27.2575 54.0785 27.1065C54.1395 26.9545 54.0668 26.7827 53.9171 26.7213L52.6509 26.2037C52.6724 26.0956 52.6834 25.9844 52.6827 25.87C52.6804 25.4842 52.5413 25.1196 52.305 24.8329L56.5966 17.0763C56.7545 16.7911 56.6529 16.4315 56.3698 16.2726C56.087 16.1138 55.7297 16.2161 55.5717 16.5014Z" fill="white"/>
</svg>
