<svg width="17" height="23" viewBox="0 0 17 23" fill="none" xmlns="http://www.w3.org/2000/svg">
<path d="M8.49992 21.3437C8.71883 21.3441 8.91011 21.2441 9.03921 21.1619C9.18355 21.07 9.33251 20.9459 9.48101 20.8053C9.77937 20.5229 10.1231 20.1286 10.489 19.6633C11.2233 18.7295 12.084 17.462 12.9042 16.1076C13.7246 14.7528 14.512 13.2987 15.0962 11.9897C15.6692 10.7056 16.0833 9.48354 16.0833 8.625C16.0833 4.38686 12.6952 0.9375 8.5 0.9375C4.30484 0.9375 0.916667 4.38686 0.916667 8.625C0.916667 9.4927 1.32884 10.719 1.90089 12.006C2.48374 13.3172 3.26955 14.7703 4.08896 16.1228C4.90813 17.4749 5.76841 18.7388 6.50394 19.6698C6.87046 20.1338 7.21522 20.5268 7.51526 20.8084C7.66463 20.9486 7.8146 21.0723 7.96011 21.1638C8.09111 21.2462 8.28216 21.3441 8.49992 21.3437ZM8.49992 21.3437C8.49901 21.3437 8.49812 21.3437 8.49721 21.3437L8.5 20.8437L8.50275 21.3437C8.5018 21.3437 8.50086 21.3437 8.49992 21.3437ZM8.49838 22.4894C8.48297 22.482 8.46132 22.4706 8.43291 22.4532C8.34087 22.3968 8.21853 22.3026 8.06651 22.1636C7.76367 21.8866 7.38868 21.4737 6.96424 20.9497C6.11782 19.9048 5.11154 18.4641 4.14508 16.9046C3.17884 15.3454 2.26014 13.6801 1.58495 12.1877C0.898968 10.6714 0.5 9.40886 0.5 8.625C0.5 4.13108 4.08887 0.5 8.5 0.5C12.9111 0.5 16.5 4.13108 16.5 8.625C16.5 9.39572 16.1004 10.6514 15.4123 12.1664C14.7353 13.6568 13.8144 15.3239 12.8466 16.8864C11.8787 18.4491 10.8715 19.8947 10.0258 20.9437C9.60168 21.4698 9.22735 21.8846 8.92559 22.163C8.77407 22.3028 8.65238 22.3975 8.56111 22.4541C8.53408 22.4709 8.51333 22.482 8.49838 22.4894ZM5.875 8.625C5.875 10.0852 7.04329 11.2812 8.5 11.2812C9.95671 11.2812 11.125 10.0852 11.125 8.625C11.125 7.16479 9.95671 5.96875 8.5 5.96875C7.04329 5.96875 5.875 7.16479 5.875 8.625ZM5.45833 8.625C5.45833 6.90911 6.82723 5.53125 8.5 5.53125C10.1728 5.53125 11.5417 6.90911 11.5417 8.625C11.5417 10.3409 10.1728 11.7187 8.5 11.7187C6.82723 11.7187 5.45833 10.3409 5.45833 8.625Z" stroke="white"/>
</svg>
